# xmcd
#
# Track frame offsets:
#	150
#	19727
#	40231
#	57102
#	71793
#	83889
#	113849
#	127571
#	164086
#	186871
#	204634
#	226189
#	246257
#	264761
#	286209
#	309255
#
# Disc length: 4382 seconds
#
# Revision: 1
# Processed by: cddbd v1.5.2PL0 Copyright (c) Steve Scherf et al.
# Submitted via: audiograbber 1.83.01
#
DISCID=d4111c10
DTITLE=The Waifs - A Brief History disc 1
DYEAR=2004
DGENRE=Blues
TTITLE0=Lighthouse
TTITLE1=London Still
TTITLE2=Take It In
TTITLE3=Low Serenade
TTITLE4=The Waitress
TTITLE5=Fisherman's Daughter
TTITLE6=Papa
TTITLE7=Crazy Train
TTITLE8=Brain damage
TTITLE9=Don't Think Twice It's Alright
TTITLE10=Lies
TTITLE11=Haircut
TTITLE12=The River
TTITLE13=Gillian
TTITLE14=A Brief History
TTITLE15=Bridal Train
EXTD=
EXTT0=
EXTT1=
EXTT2=
EXTT3=
EXTT4=
EXTT5=
EXTT6=
EXTT7=
EXTT8=
EXTT9=
EXTT10=
EXTT11=
EXTT12=
EXTT13=
EXTT14=
EXTT15=
PLAYORDER=
